<svg width="400" height="400" viewBox="0 0 400 400" fill="none" xmlns="http://www.w3.org/2000/svg">
<path d="M247.1 355H152.9C141.9 355 132.73 346.59 131.77 335.63L112.25 110.55H287.74L268.22 335.63C267.27 346.59 258.1 355 247.1 355Z" stroke="#191919" stroke-width="12" stroke-miterlimit="10" stroke-linecap="round" stroke-linejoin="round"/>
<path d="M172.39 268.87H126.84" stroke="#6A0BFF" stroke-width="12" stroke-miterlimit="10" stroke-linecap="round" stroke-linejoin="round"/>
<path d="M273.16 268.87H227.61" stroke="#6A0BFF" stroke-width="12" stroke-miterlimit="10" stroke-linecap="round" stroke-linejoin="round"/>
<path d="M279.52 186.08H231.05" stroke="#6A0BFF" stroke-width="12" stroke-miterlimit="10" stroke-linecap="round" stroke-linejoin="round"/>
<path d="M168.95 186.08H119.42" stroke="#6A0BFF" stroke-width="12" stroke-miterlimit="10" stroke-linecap="round" stroke-linejoin="round"/>
<path d="M200 277.03C228.045 277.03 250.78 254.295 250.78 226.25C250.78 198.205 228.045 175.47 200 175.47C171.955 175.47 149.22 198.205 149.22 226.25C149.22 254.295 171.955 277.03 200 277.03Z" stroke="#191919" stroke-width="12" stroke-miterlimit="10" stroke-linecap="round" stroke-linejoin="round"/>
<path d="M247.1 355H152.9C141.9 355 132.73 346.59 131.77 335.63L112.25 110.55H287.74L268.22 335.63C267.27 346.59 258.1 355 247.1 355Z" stroke="#191919" stroke-width="12" stroke-miterlimit="10" stroke-linecap="round" stroke-linejoin="round"/>
<path d="M284.5 110.55H115.5C110.28 110.55 106.05 106.32 106.05 101.1V92.5201C106.05 87.3001 110.28 83.0701 115.5 83.0701H284.5C289.72 83.0701 293.95 87.3001 293.95 92.5201V101.1C293.94 106.32 289.71 110.55 284.5 110.55Z" stroke="#6A0BFF" stroke-width="12" stroke-miterlimit="10" stroke-linecap="round" stroke-linejoin="round"/>
<path d="M272.74 83.08H127.26L133.54 60.52C136.09 51.35 144.45 45 153.97 45H246.03C255.55 45 263.9 51.35 266.46 60.52L272.74 83.08Z" stroke="#6A0BFF" stroke-width="12" stroke-miterlimit="10" stroke-linecap="round" stroke-linejoin="round"/>
</svg>
