<svg width="400" height="400" viewBox="0 0 400 400" fill="none" xmlns="http://www.w3.org/2000/svg">
<path d="M116.77 345.27L187.69 297L159.54 285.45L97.87 321.05" stroke="#6A0BFF" stroke-width="12" stroke-miterlimit="10" stroke-linecap="round" stroke-linejoin="round"/>
<path d="M284.21 345.27L214.57 297L242.72 285.45L303.7 320.86" stroke="#6A0BFF" stroke-width="12" stroke-miterlimit="10" stroke-linecap="round" stroke-linejoin="round"/>
<path d="M187.69 297C173.04 292.83 155.14 277.26 160.52 245.69C163.63 227.42 172.45 204.19 189.65 175.82C189.65 175.82 237.94 219.4 236.7 262.39C235.7 297 201.71 300.99 187.69 297Z" stroke="#6A0BFF" stroke-width="12" stroke-miterlimit="10" stroke-linecap="round" stroke-linejoin="round"/>
<path d="M192.42 50C192.42 50 102.16 84.12 102.16 199.05C102.16 257.77 146.44 298.52 192.42 298.52C238.4 298.52 293.47 262.88 289.12 191.92C286.85 154.9 258.84 96.04 258.84 96.04C258.84 96.04 226.01 120.53 226.01 160.85C226.01 160.85 170.28 123.23 192.42 50Z" stroke="#191919" stroke-width="12" stroke-miterlimit="10" stroke-linecap="round" stroke-linejoin="round"/>
<path d="M294.41 348.97C303.02 348.97 310 341.99 310 333.38C310 324.77 303.02 317.79 294.41 317.79C285.8 317.79 278.82 324.77 278.82 333.38C278.82 341.99 285.8 348.97 294.41 348.97Z" stroke="#6A0BFF" stroke-width="12" stroke-miterlimit="10" stroke-linecap="round" stroke-linejoin="round"/>
<path d="M105.59 350C114.2 350 121.18 343.02 121.18 334.41C121.18 325.8 114.2 318.82 105.59 318.82C96.9799 318.82 90 325.8 90 334.41C90 343.02 96.9799 350 105.59 350Z" stroke="#6A0BFF" stroke-width="12" stroke-miterlimit="10" stroke-linecap="round" stroke-linejoin="round"/>
</svg>
